<?xml version="1.0" encoding="UTF-8"?><svg id="Layer_1" xmlns="http://www.w3.org/2000/svg" viewBox="0 0 64 64"><defs><style>.cls-1{fill:#123ce7;fill-rule:evenodd;}</style></defs><path class="cls-1" d="M32,2.21C15.55,2.21,2.21,15.55,2.21,32s13.34,29.79,29.79,29.79,29.79-13.34,29.79-29.79S48.45,2.21,32,2.21ZM0,32C0,14.33,14.33,0,32,0s32,14.33,32,32-14.33,32-32,32S0,49.67,0,32ZM32,9.56c-12.39,0-22.44,10.05-22.44,22.44s10.05,22.44,22.44,22.44,22.44-10.05,22.44-22.44-10.05-22.44-22.44-22.44ZM7.36,32c0-13.61,11.03-24.64,24.64-24.64s24.64,11.03,24.64,24.64-11.03,24.64-24.64,24.64S7.36,45.61,7.36,32ZM30.9,12.87v2.94h2.21v-2.94h-2.21Zm0,38.25v-2.94h2.21v2.94h-2.21Zm19.86-20.6h-2.21v2.94h2.21v-2.94Zm-37.52,0h2.21v2.94h-2.21v-2.94Zm17.66-11.77v13.24c0,.61,.49,1.1,1.1,1.1h8.83v-2.21h-7.72v-12.14h-2.21Z"/></svg>